<svg width="60" height="61" viewBox="0 0 60 61" fill="none" xmlns="http://www.w3.org/2000/svg">
<path d="M29.9183 14.7716C21.4303 14.7716 14.5838 21.6181 14.5838 30.1061C14.5838 38.5942 21.4303 45.4406 29.9183 45.4406C38.4063 45.4406 45.2528 38.5942 45.2528 30.1061C45.2528 21.6181 38.4063 14.7716 29.9183 14.7716ZM29.9183 40.0756C24.4331 40.0756 19.9489 35.6047 19.9489 30.1061C19.9489 24.6076 24.4198 20.1367 29.9183 20.1367C35.4168 20.1367 39.8877 24.6076 39.8877 30.1061C39.8877 35.6047 35.4035 40.0756 29.9183 40.0756ZM49.4568 14.1444C49.4568 16.1329 47.8553 17.7211 45.8801 17.7211C43.8915 17.7211 42.3034 16.1196 42.3034 14.1444C42.3034 12.1692 43.9049 10.5676 45.8801 10.5676C47.8553 10.5676 49.4568 12.1692 49.4568 14.1444ZM59.6131 17.7745C59.3862 12.9833 58.2918 8.73925 54.7818 5.24261C51.2852 1.74597 47.0412 0.651598 42.25 0.411371C37.312 0.131106 22.5113 0.131106 17.5733 0.411371C12.7954 0.638252 8.55142 1.73262 5.04144 5.22926C1.53145 8.7259 0.450426 12.9699 0.210199 17.7611C-0.0700663 22.6991 -0.0700663 37.4998 0.210199 42.4378C0.43708 47.229 1.53145 51.473 5.04144 54.9696C8.55142 58.4663 12.7821 59.5607 17.5733 59.8009C22.5113 60.0811 37.312 60.0811 42.25 59.8009C47.0412 59.574 51.2852 58.4796 54.7818 54.9696C58.2785 51.473 59.3728 47.229 59.6131 42.4378C59.8933 37.4998 59.8933 22.7125 59.6131 17.7745ZM53.2337 47.7361C52.1927 50.3519 50.1775 52.3672 47.5483 53.4215C43.6113 54.983 34.2691 54.6227 29.9183 54.6227C25.5675 54.6227 16.212 54.9696 12.2883 53.4215C9.67248 52.3805 7.65724 50.3653 6.60291 47.7361C5.04144 43.7991 5.40178 34.4569 5.40178 30.1061C5.40178 25.7553 5.05478 16.3998 6.60291 12.4761C7.6439 9.86031 9.65914 7.84507 12.2883 6.79074C16.2253 5.22926 25.5675 5.5896 29.9183 5.5896C34.2691 5.5896 43.6246 5.24261 47.5483 6.79074C50.1641 7.83172 52.1794 9.84696 53.2337 12.4761C54.7952 16.4132 54.4348 25.7553 54.4348 30.1061C54.4348 34.4569 54.7952 43.8124 53.2337 47.7361Z" fill="black"/>
</svg>
