<svg width="26" height="27" viewBox="0 0 26 27" fill="none" xmlns="http://www.w3.org/2000/svg">
<path d="M24.3897 25.5039C24.2028 25.5101 23.9451 25.4951 23.6166 25.4591C23.3347 25.4216 23.0973 25.3124 22.9044 25.1317C22.7175 25.1378 22.3882 25.0784 21.9164 24.9536C21.4447 24.8287 21.0189 24.679 20.639 24.5043C20.1657 24.3328 19.5228 23.9797 18.7103 23.4451C17.8962 22.8637 17.0806 22.2357 16.2635 21.561C15.4464 20.8862 14.7476 20.2544 14.1671 19.6654C13.6333 19.0749 13.3618 18.6395 13.3527 18.3592C13.345 18.1256 13.2244 18.0126 12.9908 18.0203C12.9908 18.0203 12.9184 17.9525 12.7737 17.817C12.6274 17.6347 12.5512 17.4501 12.5451 17.2632C12.5298 16.7961 12.2886 16.5701 11.8214 16.5854C11.8214 16.5854 11.435 16.9254 10.6623 17.6055C9.8895 18.2855 9.05124 19.108 8.1475 20.0729C6.88225 21.4238 5.93255 22.4136 5.2984 23.0423C4.70944 23.6228 4.22809 23.9192 3.85435 23.9314C3.48062 23.9437 3.05558 23.8173 2.57924 23.5523C2.10289 23.2873 1.67174 22.974 1.28577 22.6125C0.944986 22.2028 0.768477 21.811 0.756242 21.4373C0.756242 21.4373 1.20582 20.8848 2.10498 19.7797C3.05085 18.6731 4.15947 17.5378 5.43083 16.3737L9.77111 11.8122L8.9131 9.17456C8.56162 8.4378 8.18601 7.67845 7.78627 6.8965C7.43172 6.0663 7.15184 5.37396 6.94662 4.81948C6.36002 4.04365 6.0403 3.56307 5.98747 3.37773C5.97982 3.14414 6.15369 2.74093 6.50907 2.1681C6.87057 1.78213 7.16658 1.5386 7.3971 1.43752C7.67282 1.2882 8.09709 1.39122 8.66993 1.7466C8.95023 1.73743 9.33696 2.12228 9.83013 2.90117C10.3218 3.63335 10.7697 4.46048 11.1741 5.38258C11.6236 6.25644 11.8545 6.88023 11.8667 7.25396C11.8912 8.00143 12.1814 8.29591 12.7374 8.13741C13.2934 7.97891 14.1198 7.50757 15.2165 6.72339C15.7603 6.19116 16.1903 5.75618 16.5067 5.41845C16.8214 5.03401 16.9788 4.84179 16.9788 4.84179C17.1144 4.69705 17.5249 4.37963 18.2104 3.88952C18.8943 3.3527 19.6016 2.81511 20.3322 2.27675C21.0629 1.7384 21.5434 1.41868 21.774 1.3176C22.1385 1.02506 22.559 1.0113 23.0353 1.2763C23.5101 1.49459 23.9195 1.85533 24.2633 2.35851C24.6056 2.81497 24.7852 3.30014 24.802 3.81402C24.8204 4.37462 24.6947 4.82302 24.4251 5.15921C24.1556 5.49541 23.562 5.93574 22.6445 6.48021C21.8235 7.11506 21.0936 7.67677 20.4548 8.16535C19.8628 8.6524 19.2256 9.1877 18.5432 9.77124C17.906 10.3065 17.088 11.0348 16.0893 11.9561L14.3156 13.4873L15.4987 15.3426C15.6963 15.6635 15.9685 16.1223 16.3154 16.7189C16.709 17.314 17.0724 17.6996 17.4055 17.8758C17.6981 18.2403 18.2521 18.7366 19.0677 19.3646C19.8833 19.9927 20.674 20.5748 21.4399 21.1109C22.2509 21.5988 22.7031 21.8412 22.7965 21.8381C22.9834 21.832 23.1959 21.8952 23.4341 22.0277C23.6723 22.1602 23.9579 22.3145 24.291 22.4907C24.677 22.8522 24.9244 23.265 25.0331 23.7291C25.1885 24.1917 25.2023 24.6121 25.0744 24.9905C24.9917 25.3205 24.7634 25.4917 24.3897 25.5039Z" fill="black"/>
</svg>
